<svg xmlns="http://www.w3.org/2000/svg" width="22" height="22" viewBox="0 0 22 22">
    <path fill="#000" fill-rule="evenodd" d="M11 0C4.925 0 0 4.925 0 11s4.925 11 11 11 11-4.925 11-11S17.075 0 11 0zm5.318 14.708a.386.386 0 0 1 .113.275c0 .103-.039.206-.113.275l-1.06 1.065a.382.382 0 0 1-.275.113.395.395 0 0 1-.275-.113L11 12.611l-3.703 3.717a.375.375 0 0 1-.275.113.395.395 0 0 1-.275-.113l-1.06-1.066a.386.386 0 0 1-.113-.274c0-.104.039-.207.113-.275l3.717-3.733-3.727-3.683a.394.394 0 0 1 0-.555l1.06-1.065a.386.386 0 0 1 .276-.113c.103 0 .2.04.274.113l3.718 3.668 3.717-3.668a.386.386 0 0 1 .275-.113c.103 0 .202.04.275.113l1.061 1.065a.394.394 0 0 1 0 .555l-3.727 3.683 3.712 3.728z"/>
</svg>
