<svg xmlns="http://www.w3.org/2000/svg" width="20" height="20" viewBox="0 0 20 20">
    <path fill="#000" fill-rule="evenodd" d="M18.571 5.714h-2.857v-.2A5.497 5.497 0 0 0 10.201 0h-.357C6.786 0 4.286 2.455 4.286 5.513v.201H1.429L0 20h20L18.571 5.714zm-12.857-.2c0-2.264 1.866-4.085 4.13-4.085H10.2a4.075 4.075 0 0 1 4.085 4.084v.201H5.714v-.2zM1.598 18.57L2.71 7.143h1.576v1.62A1.427 1.427 0 0 0 5 11.428a1.427 1.427 0 0 0 .714-2.665v-1.62h8.572v1.62A1.427 1.427 0 0 0 15 11.428a1.427 1.427 0 0 0 .714-2.665v-1.62h1.58l1.112 11.428H1.598z"/>
</svg>
