<svg xmlns="http://www.w3.org/2000/svg" width="21" height="16" viewBox="0 0 21 16">
    <g fill="#333" fill-rule="nonzero">
        <path d="M17.502 12.148H7.8a.566.566 0 0 1-.522-.386L4.652 4.608a.666.666 0 0 1 .056-.574.55.55 0 0 1 .466-.27h14.953a.55.55 0 0 1 .466.27c.105.169.126.384.056.574l-2.625 7.154a.566.566 0 0 1-.522.386"/>
        <path d="M7.71 12.014a.566.566 0 0 1-.523-.39L3.437 1.23H.563C.252 1.23 0 .955 0 .615 0 .275.252 0 .563 0H3.82c.231 0 .439.154.524.39l3.89 10.782c.114.316-.028.673-.316.799a.522.522 0 0 1-.207.043M10.026 14.68c0 .68-.504 1.23-1.125 1.23-.622 0-1.125-.55-1.125-1.23 0-.68.503-1.231 1.125-1.231.621 0 1.125.55 1.125 1.23M17.526 14.68c0 .68-.504 1.23-1.125 1.23-.622 0-1.125-.55-1.125-1.23 0-.68.503-1.231 1.125-1.231.621 0 1.125.55 1.125 1.23"/>
    </g>
</svg>
